The.Traveler.2010.BRRip.H264.Feel-Free

Genre:Horror | Thriller
Language: English 
http://www.imdb.com/title/tt1533084/
Source:BluRay x264-LCHD

General
Complete name :The.Traveler.2010.BRRip.H264.Feel-Free
Format : MPEG-4
Format profile : Base Media
Codec ID : isom
File size : 1.24 GiB
Duration : 1h 35mn
Overall bit rate : 1 855 Kbps
Video #1
ID : 1
Format : AVC
Format/Info : Advanced Video Codec
Format profile : Baseline@L5.1
Format settings, CABAC : No
Format settings, ReFrames : 1 frame
Codec ID : avc1
Codec ID/Info : Advanced Video Coding
Duration : 1h 35mn
Bit rate mode : Variable
Bit rate : 1 532 Kbps
Width : 652 pixels
Height : 352 pixels
Display aspect ratio : 1.852
Frame rate mode : Constant
Frame rate : 24.390 fps
Resolution : 24 bits
Colorimetry : 4:2:0
Scan type : Progressive
Bits/(Pixel*Frame) : 0.274
Stream size : 1.03 GiB (83%)
Audio #2
ID : 2
Format : AAC
Format/Info : Advanced Audio Codec
Format version : Version 4
Format profile : LC
Format settings, SBR : No
Codec ID : 40
Duration : 1h 35mn
Bit rate mode : Variable
Bit rate : 320 Kbps
Channel(s) : 6 channels
Channel positions : Front: L C R, Rear: L R, LFE
Sampling rate : 48.0 KHz
Resolution : 16 bits
Stream size : 219 MiB (17%)

Plot
On a dark Christmas Eve in a small town, the lone Sheriffs on the night shift encounter a mysterious man who goes by the name of Mr...